<svg width="357" height="353" viewBox="0 0 357 353" fill="none" xmlns="http://www.w3.org/2000/svg">
<g filter="url(#filter0_dd_1164_86)">
<path d="M103.055 29.5134C59.0277 -3.14191 15 29.5134 15 29.5134V260.815L282.417 237.292C282.417 237.292 284.553 188.201 262.765 164.371C247.352 147.513 215.918 143.945 209.975 147.513C209.975 147.513 202.455 104.977 180.577 98.117C158.698 91.2566 138.98 102.508 138.98 102.508C138.98 102.508 147.083 62.1687 103.055 29.5134Z" fill="url(#paint0_linear_1164_86)"/>
</g>
<g filter="url(#filter1_dd_1164_86)">
<path d="M133.115 134.583C89.0877 101.928 45.06 134.583 45.06 134.583V282.771H291.669C291.669 282.771 294.632 222.957 268.44 216.908C255.163 213.841 240.349 221.024 234.406 224.591C234.406 224.591 232.515 210.047 210.637 203.187C188.758 196.326 169.04 207.577 169.04 207.577C169.04 207.577 177.143 167.239 133.115 134.583Z" fill="url(#paint1_linear_1164_86)"/>
</g>
<defs>
<filter id="filter0_dd_1164_86" x="0" y="0" width="347.474" height="330.815" filterUnits="userSpaceOnUse" color-interpolation-filters="sRGB">
<feFlood flood-opacity="0" result="BackgroundImageFix"/>
<feColorMatrix in="SourceAlpha" type="matrix" values="0 0 0 0 0 0 0 0 0 0 0 0 0 0 0 0 0 0 127 0" result="hardAlpha"/>
<feOffset dx="25" dy="30"/>
<feGaussianBlur stdDeviation="20"/>
<feComposite in2="hardAlpha" operator="out"/>
<feColorMatrix type="matrix" values="0 0 0 0 0 0 0 0 0 0 0 0 0 0 0 0 0 0 0.4 0"/>
<feBlend mode="normal" in2="BackgroundImageFix" result="effect1_dropShadow_1164_86"/>
<feColorMatrix in="SourceAlpha" type="matrix" values="0 0 0 0 0 0 0 0 0 0 0 0 0 0 0 0 0 0 127 0" result="hardAlpha"/>
<feOffset/>
<feGaussianBlur stdDeviation="7.5"/>
<feComposite in2="hardAlpha" operator="out"/>
<feColorMatrix type="matrix" values="0 0 0 0 1 0 0 0 0 1 0 0 0 0 1 0 0 0 1 0"/>
<feBlend mode="normal" in2="effect1_dropShadow_1164_86" result="effect2_dropShadow_1164_86"/>
<feBlend mode="normal" in="SourceGraphic" in2="effect2_dropShadow_1164_86" result="shape"/>
</filter>
<filter id="filter1_dd_1164_86" x="30.06" y="105.07" width="326.71" height="247.701" filterUnits="userSpaceOnUse" color-interpolation-filters="sRGB">
<feFlood flood-opacity="0" result="BackgroundImageFix"/>
<feColorMatrix in="SourceAlpha" type="matrix" values="0 0 0 0 0 0 0 0 0 0 0 0 0 0 0 0 0 0 127 0" result="hardAlpha"/>
<feOffset dx="25" dy="30"/>
<feGaussianBlur stdDeviation="20"/>
<feComposite in2="hardAlpha" operator="out"/>
<feColorMatrix type="matrix" values="0 0 0 0 0 0 0 0 0 0 0 0 0 0 0 0 0 0 0.4 0"/>
<feBlend mode="normal" in2="BackgroundImageFix" result="effect1_dropShadow_1164_86"/>
<feColorMatrix in="SourceAlpha" type="matrix" values="0 0 0 0 0 0 0 0 0 0 0 0 0 0 0 0 0 0 127 0" result="hardAlpha"/>
<feOffset/>
<feGaussianBlur stdDeviation="7.5"/>
<feComposite in2="hardAlpha" operator="out"/>
<feColorMatrix type="matrix" values="0 0 0 0 1 0 0 0 0 1 0 0 0 0 1 0 0 0 1 0"/>
<feBlend mode="normal" in2="effect1_dropShadow_1164_86" result="effect2_dropShadow_1164_86"/>
<feBlend mode="normal" in="SourceGraphic" in2="effect2_dropShadow_1164_86" result="shape"/>
</filter>
<linearGradient id="paint0_linear_1164_86" x1="154.701" y1="260.815" x2="39.3275" y2="63.1211" gradientUnits="userSpaceOnUse">
<stop stop-color="#00165E"/>
<stop offset="0.525555" stop-color="#4295BE"/>
<stop offset="1" stop-color="#89BCD2"/>
</linearGradient>
<linearGradient id="paint1_linear_1164_86" x1="173.916" y1="282.771" x2="111.416" y2="133.529" gradientUnits="userSpaceOnUse">
<stop stop-color="#00165E"/>
<stop offset="0.525555" stop-color="#4295BE"/>
<stop offset="1" stop-color="#89BCD2"/>
</linearGradient>
</defs>
</svg>
